<?xml version="1.0" encoding="UTF-8" standalone="no"?>
<!-- Created with Inkscape (http://www.inkscape.org/) -->

<svg
        xmlns:inkscape="http://www.inkscape.org/namespaces/inkscape"
        xmlns:sodipodi="http://sodipodi.sourceforge.net/DTD/sodipodi-0.dtd"
        width="128mm"
        height="128mm"
        viewBox="0 0 128 128"
        version="1.1"
        id="svg1"
        inkscape:version="1.4.1 (93de688d07, 2025-03-30)"
        sodipodi:docname="icon.svg"
        xmlns="http://www.w3.org/2000/svg"
>
    <sodipodi:namedview
            id="namedview1"
            pagecolor="#ffffff"
            bordercolor="#000000"
            borderopacity="0.25"
            inkscape:showpageshadow="2"
            inkscape:pageopacity="0.0"
            inkscape:pagecheckerboard="0"
            inkscape:deskcolor="#d1d1d1"
            inkscape:document-units="mm"
            inkscape:zoom="0.99597363"
            inkscape:cx="396.59685"
            inkscape:cy="561.25984"
            inkscape:window-width="2304"
            inkscape:window-height="1371"
            inkscape:window-x="0"
            inkscape:window-y="0"
            inkscape:window-maximized="1"
            inkscape:current-layer="layer1"/>
    <defs
            id="defs1"/>
    <g
            inkscape:label="Layer 1"
            inkscape:groupmode="layer"
            id="layer1">
        <circle
                style="fill:#008066;stroke-width:0.29106"
                id="path1"
                cx="64"
                cy="64"
                inkscape:label="path1"
                r="64"/>
        <g
                id="g12"
                style="display:inline"
                transform="matrix(0.83457692,0,0,0.86690005,-21.963727,-34.758043)">
            <g
                    id="g11"
                    transform="matrix(0.82791663,0,0,0.78218361,17.223028,18.5405)">
                <path
                        d="M 103.60915,62.95068 A 34.734347,35 0 0 0 68.874866,97.951127 34.734347,35 0 0 0 103.60915,132.95106 34.734347,35 0 0 0 138.34342,97.951127 34.734347,35 0 0 0 103.60915,62.95068 Z"
                        style="fill:#ffffff;stroke-width:0.263577"
                        id="path10"/>
                <path
                        style="fill:#ffffff;fill-opacity:1;stroke-width:0.242798"
                        d="m 72.255464,113.16175 28.930136,57.11538 33.4983,-56.82297 z"
                        id="path11"
                        sodipodi:nodetypes="cccc"/>
            </g>
            <path
                    style="display:inline;fill:#00aa88;fill-opacity:1;stroke-width:0.264583"
                    id="path12"
                    sodipodi:type="arc"
                    sodipodi:cx="101.09165"
                    sodipodi:cy="151.06233"
                    sodipodi:rx="9"
                    sodipodi:ry="9"
                    sodipodi:start="5.3058009"
                    sodipodi:end="4.1887902"
                    sodipodi:arc-type="slice"
                    d="m 106.12439,143.60099 a 9,9 0 0 1 3.52677,10.24249 9,9 0 0 1 -8.8736,6.21337 9,9 0 0 1 -8.41857,-6.81722 9,9 0 0 1 4.232662,-9.97153 l 4.499998,7.79423 z"/>
        </g>
    </g>
</svg>
